<svg xmlns="http://www.w3.org/2000/svg" viewBox="0 0 64 64" role="img" aria-label="Parfums">
  <defs>
    <linearGradient id="bg" x1="0" y1="0" x2="1" y2="1">
      <stop offset="0%" stop-color="#1f40cd"/>
      <stop offset="100%" stop-color="#0ea5a4"/>
    </linearGradient>
  </defs>
  <rect x="4" y="4" width="56" height="56" rx="14" fill="url(#bg)"/>
  <path d="M20 34v-5a5 5 0 0 1 5-5h14a5 5 0 0 1 5 5v5h2a3 3 0 0 1 3 3v9a6 6 0 0 1-6 6H21a6 6 0 0 1-6-6v-9a3 3 0 0 1 3-3h2zm5-5v5h14v-5h-14zm2 11a2 2 0 1 0 0 4h10a2 2 0 1 0 0-4H27z" fill="#ffffff"/>
</svg>
